<svg width="21px" height="18px" viewBox="0 0 21 18" version="1.1" xmlns="http://www.w3.org/2000/svg" xmlns:xlink="http://www.w3.org/1999/xlink">
    <!-- Generator: Sketch 51.3 (57544) - http://www.bohemiancoding.com/sketch -->
    <desc>Created with Sketch.</desc>
    <defs></defs>
    <g id="Welcome" stroke="none" stroke-width="1" fill="none" fill-rule="evenodd">
        <g id="카트-페이지-1" transform="translate(-242.000000, -17.000000)" fill="#6E6E78" fill-rule="nonzero">
            <g id="Header">
                <g id="Group" transform="translate(242.000000, 17.000000)">
                    <path d="M2.18644068,4.37288136 C3.39375422,4.37288136 4.37288136,3.39053739 4.37288136,2.18851313 C4.37288136,0.986488875 3.39375422,0 2.18644068,0 C0.979127135,0 0,0.982343963 0,2.18436822 C0,3.38639248 0.983275979,4.37288136 2.18644068,4.37288136 Z M2.18644068,1.01550325 C2.83366031,1.01550325 3.35641463,1.54190698 3.35641463,2.18436822 C3.35641463,2.82682946 2.82951147,3.35323319 2.18644068,3.35323319 C1.54336989,3.35323319 1.01646673,2.82682946 1.01646673,2.18436822 C1.01646673,1.54190698 1.54336989,1.01550325 2.18644068,1.01550325 Z" id="Shape"></path>
                    <path d="M2.18644068,11.1864407 C3.39375422,11.1864407 4.37288136,10.2031647 4.37288136,9 C4.37288136,7.7968353 3.39375422,6.81355932 2.18644068,6.81355932 C0.979127135,6.81355932 0,7.79268646 0,9 C0,10.2073135 0.983275979,11.1864407 2.18644068,11.1864407 Z M2.18644068,7.83002605 C2.83366031,7.83002605 3.35641463,8.35692921 3.35641463,9 C3.35641463,9.64307079 2.82951147,10.1699739 2.18644068,10.1699739 C1.54336989,10.1699739 1.01646673,9.64721963 1.01646673,9 C1.01646673,8.35278037 1.54336989,7.83002605 2.18644068,7.83002605 Z" id="Shape"></path>
                    <path d="M2.18644068,18 C3.39375422,18 4.37288136,17.016724 4.37288136,15.8135593 C4.37288136,14.6062458 3.38960538,13.6271186 2.18644068,13.6271186 C0.983275979,13.6271186 0,14.6103946 0,15.8135593 C0,17.016724 0.983275979,18 2.18644068,18 Z M2.18644068,14.6394365 C2.83366031,14.6394365 3.35641463,15.1663397 3.35641463,15.8094105 C3.35641463,16.4566301 2.82951147,16.9793844 2.18644068,16.9793844 C1.54336989,16.9793844 1.01646673,16.4524813 1.01646673,15.8094105 C1.01646673,15.1663397 1.54336989,14.6394365 2.18644068,14.6394365 Z" id="Shape"></path>
                    <path d="M7.32755368,2.74576271 L19.9266836,2.74576271 C20.2108431,2.74576271 20.440678,2.51839603 20.440678,2.23728814 C20.440678,1.95618024 20.2108431,1.72881356 19.9266836,1.72881356 L7.32755368,1.72881356 C7.0433942,1.72881356 6.81355932,1.95618024 6.81355932,2.23728814 C6.81355932,2.51839603 7.0433942,2.74576271 7.32755368,2.74576271 Z" id="Shape"></path>
                    <path d="M7.32755368,9.55932203 L19.9266836,9.55932203 C20.2108431,9.55932203 20.440678,9.33195535 20.440678,9.05084746 C20.440678,8.76973956 20.2108431,8.54237288 19.9266836,8.54237288 L7.32755368,8.54237288 C7.0433942,8.54237288 6.81355932,8.76973956 6.81355932,9.05084746 C6.81355932,9.33195535 7.0433942,9.55932203 7.32755368,9.55932203 Z" id="Shape"></path>
                    <path d="M7.32755368,16.3728814 L19.9266836,16.3728814 C20.2108431,16.3728814 20.440678,16.1455147 20.440678,15.8644068 C20.440678,15.5832989 20.2108431,15.3559322 19.9266836,15.3559322 L7.32755368,15.3559322 C7.0433942,15.3559322 6.81355932,15.5832989 6.81355932,15.8644068 C6.81355932,16.1455147 7.0433942,16.3728814 7.32755368,16.3728814 Z" id="Shape"></path>
                </g>
            </g>
        </g>
    </g>
</svg>